<svg xmlns="http://www.w3.org/2000/svg" xmlns:xlink="http://www.w3.org/1999/xlink" width="600" zoomAndPan="magnify" viewBox="0 0 450 314.250004" height="419" preserveAspectRatio="xMidYMid meet" version="1.0"><defs><g/><clipPath id="8d3de6195e"><path d="M 150.179688 114.753906 L 299 114.753906 L 299 204.539062 L 150.179688 204.539062 Z M 150.179688 114.753906 " clip-rule="nonzero"/></clipPath></defs><g clip-path="url(#8d3de6195e)"><path fill="#000000" d="M 273.824219 136.933594 C 273.824219 136.933594 274.433594 137.675781 276.363281 137.632812 C 278.292969 137.585938 280.222656 136.996094 282.636719 140.609375 C 285.046875 144.226562 287.601562 144.226562 288.046875 143.476562 C 288.492188 142.730469 287.886719 141.234375 289.121094 141.335938 C 290.355469 141.4375 291.414062 141.09375 291.835938 139.921875 C 292.261719 138.75 291.371094 139.074219 292.28125 138.144531 C 293.195312 137.210938 292.464844 135.921875 290.496094 134.503906 C 288.53125 133.089844 285.632812 130.6875 283.847656 128.101562 C 282.0625 125.519531 278.699219 121.558594 277.359375 121.335938 C 277.359375 121.335938 278.027344 120.949219 279.078125 121.980469 C 279.078125 121.980469 278.46875 120.113281 275.320312 120.554688 C 275.320312 120.554688 273.347656 115.84375 269.121094 114.753906 L 269.789062 117.058594 C 269.789062 117.058594 268.542969 115.753906 265.503906 115.691406 C 265.503906 115.691406 266.6875 115.996094 267.144531 117.570312 C 267.601562 119.144531 267.648438 119.992188 269.441406 120.132812 C 269.441406 120.132812 269.136719 120.632812 267.796875 120.390625 C 266.460938 120.148438 265.089844 119.949219 264.410156 121.101562 C 264.410156 121.101562 265.53125 120.3125 266.582031 121.28125 C 266.582031 121.28125 264.804688 122.402344 262.660156 122.25 C 260.515625 122.101562 258.34375 122.308594 256.792969 124.308594 C 256.792969 124.308594 258.601562 123.007812 260.429688 123.902344 C 260.429688 123.902344 255.640625 127.460938 252.28125 126.054688 C 252.28125 126.054688 253.925781 127.628906 256.382812 127.1875 C 256.382812 127.1875 256.382812 127.75 253.542969 127.6875 C 250.699219 127.625 249.117188 127.945312 248.691406 129.835938 C 248.691406 129.835938 249.9375 128.535156 251.335938 129.003906 C 251.335938 129.003906 251.351562 130.519531 248.1875 131.261719 C 245.023438 132.003906 244.507812 133.261719 244.175781 135.457031 C 244.175781 135.457031 245.074219 133.851562 246.683594 134.152344 C 246.683594 134.152344 247.078125 138.746094 237.835938 140.078125 C 228.59375 141.410156 205.304688 138.867188 198.25 141.652344 C 191.199219 144.441406 188.765625 146.316406 184.996094 146.015625 C 181.226562 145.710938 171.214844 144.601562 167.566406 148.921875 C 163.917969 153.246094 158.691406 157.730469 154.757812 154.09375 C 154.757812 154.09375 155.546875 156.515625 159.273438 155.851562 C 159.273438 155.851562 156.617188 156.960938 154.574219 155.0625 C 152.527344 153.164062 150.214844 156.921875 150.214844 156.921875 C 150.214844 156.921875 152.609375 155.75 153.640625 158.859375 C 154.675781 161.96875 158.828125 161.300781 158.828125 161.300781 C 158.828125 161.300781 157.527344 162.292969 155.179688 161.644531 C 155.179688 161.644531 158.949219 164.332031 162.800781 161.667969 C 162.800781 161.667969 163.207031 163.503906 161.363281 163.949219 C 159.519531 164.394531 156.152344 164.152344 155.542969 166.09375 C 155.542969 166.09375 157.671875 164.3125 160.570312 165.96875 C 163.46875 167.625 166.507812 165.34375 167.765625 162.859375 C 169.023438 160.375 171.3125 159.464844 171.3125 159.464844 C 171.3125 159.464844 169.308594 160.675781 169.125 163.363281 C 169.125 163.363281 169.183594 162.113281 170.929688 161.324219 C 172.671875 160.535156 175.933594 158.511719 176.785156 155.808594 C 177.636719 153.101562 180.902344 149.710938 184.8125 150.292969 C 184.8125 150.292969 181.628906 153.203125 181.648438 156.960938 C 181.667969 160.71875 182.761719 167.300781 180.167969 169.363281 C 177.574219 171.421875 171.230469 174.878906 169.121094 177.886719 C 167.015625 180.898438 161.945312 186.644531 160.230469 187.960938 C 158.511719 189.277344 158.449219 189.640625 157.144531 189.550781 C 155.835938 189.457031 156.277344 190.625 155.441406 190.71875 C 154.605469 190.808594 153.148438 189.945312 152.21875 192.339844 C 151.292969 194.730469 150.925781 196.234375 152.277344 195.566406 C 153.628906 194.898438 157.585938 193.492188 158.921875 191.914062 C 160.257812 190.339844 165.050781 186.402344 169.335938 183.761719 C 173.625 181.128906 180.523438 177.277344 185.632812 175.550781 C 190.738281 173.824219 197.125 171.1875 196.667969 167.675781 C 196.667969 167.675781 203.476562 169.765625 203.722656 173.976562 C 203.964844 178.191406 199.464844 184.160156 200.621094 185.492188 C 201.777344 186.824219 212.414062 190.398438 215.457031 193.792969 C 218.5 197.1875 217.101562 197.066406 218.164062 197.429688 C 219.226562 197.792969 219.695312 198.269531 219.027344 198.976562 C 218.355469 199.679688 217.710938 200.734375 220.0625 202.164062 C 222.410156 203.601562 224.804688 204.550781 224.925781 204.023438 C 225.046875 203.5 223.382812 199.339844 222.777344 198.328125 C 222.167969 197.316406 222.433594 196.125 221.15625 194.972656 C 219.878906 193.824219 215.601562 190.550781 213.371094 188.351562 C 211.140625 186.148438 207.753906 185.523438 209.761719 181.867188 C 211.769531 178.207031 217.738281 173.28125 215.0625 167.824219 C 215.0625 167.824219 224.0625 173.429688 234.277344 173.097656 C 234.277344 173.097656 232.585938 177.28125 230.15625 182.773438 C 227.722656 188.265625 227.113281 190.609375 225.148438 191.015625 C 223.183594 191.417969 221.15625 191.378906 220.285156 191.984375 C 219.410156 192.589844 218.90625 192.671875 217.609375 192.347656 C 216.3125 192.027344 215.316406 192.085938 214.9375 192.851562 C 214.550781 193.621094 214 193.78125 213.4375 193.660156 C 212.871094 193.539062 211.8125 194.769531 211.8125 194.769531 C 211.8125 194.769531 209.949219 192.992188 208.957031 195.035156 C 207.964844 197.074219 206.078125 201.457031 208.46875 200.46875 C 210.863281 199.476562 212.402344 197.335938 213.78125 197.476562 C 215.15625 197.617188 215.542969 197.171875 217.023438 196.507812 C 218.5 195.839844 220.652344 194.914062 225.515625 194.207031 C 230.378906 193.5 230.6875 192.671875 233.28125 188.792969 C 235.875 184.914062 240.046875 181.039062 242.195312 179.339844 C 244.347656 177.644531 245.277344 175.015625 245.277344 175.015625 C 245.277344 175.015625 246.328125 174.894531 248.316406 175.542969 C 250.300781 176.191406 252.289062 175.664062 253.910156 175.101562 C 255.53125 174.53125 256.542969 174.898438 257.945312 175.585938 C 259.34375 176.269531 271.542969 181.480469 274.015625 183.015625 C 276.488281 184.550781 282.410156 186.429688 285.203125 189.882812 C 288.003906 193.335938 288.15625 192.703125 289.582031 193.15625 C 291.011719 193.613281 289.976562 193.945312 290.039062 195.214844 C 290.097656 196.488281 295.753906 197.003906 297.761719 196.214844 C 299.769531 195.425781 296.972656 194.277344 293.992188 192.640625 C 291.011719 191.003906 291.769531 190.003906 289.976562 189.277344 C 288.183594 188.550781 280.828125 184.371094 278.363281 180.640625 C 275.898438 176.917969 274.683594 177.339844 271.765625 175.914062 C 268.847656 174.492188 262.585938 167.402344 262.585938 167.402344 C 262.585938 167.402344 264.351562 164.007812 263.863281 158.429688 C 263.378906 152.855469 269.367188 138.554688 270.792969 136.28125 C 272.226562 134.027344 272.835938 136.058594 273.824219 136.933594 Z M 273.824219 136.933594 " fill-opacity="1" fill-rule="nonzero"/></g><g fill="#000000" fill-opacity="1"><g transform="translate(200.009838, 113.055281)"><g><path d="M 23.246094 -27.601562 L 26.207031 -30.023438 L 26.207031 -30.292969 L 13.285156 -30.292969 L 13.285156 -30.023438 L 14.898438 -27.601562 L 10.457031 -9.785156 C 8.707031 -2.871094 8.078125 -0.3125 6.6875 -0.3125 C 3.726562 -0.3125 6.460938 -11.308594 7.945312 -15.167969 L 7.71875 -15.347656 L -1.617188 -5.117188 C -0.492188 -1.078125 1.796875 0.628906 5.160156 0.628906 C 9.289062 0.628906 17.996094 -6.507812 18.625 -9.15625 Z M 23.246094 -27.601562 "/></g></g></g><g fill="#000000" fill-opacity="1"><g transform="translate(221.00844, 113.055281)"><g><path d="M 29.261719 -23.023438 C 30.292969 -27.285156 27.914062 -30.292969 19.386719 -30.292969 L 5.746094 -30.292969 L 5.746094 -30.023438 L 7.71875 -27.691406 L 1.480469 -2.601562 L -1.210938 -0.269531 L -1.210938 0 L 11.085938 0 C 20.507812 0 26.117188 -4.351562 27.105469 -8.347656 C 28.136719 -12.566406 26.433594 -16.378906 17.683594 -15.484375 L 17.683594 -15.707031 C 24.144531 -16.648438 28.273438 -19.207031 29.261719 -23.023438 Z M 13.148438 -15.976562 L 16.515625 -29.53125 L 17.90625 -29.53125 C 21.765625 -29.53125 21.8125 -26.566406 20.914062 -23.066406 C 19.65625 -17.949219 18.21875 -16.019531 14.40625 -15.976562 Z M 18.039062 -7.808594 C 16.875 -3.050781 15.214844 -0.988281 10.679688 -0.808594 C 9.785156 -0.761719 9.648438 -0.808594 9.335938 -0.808594 L 12.925781 -15.167969 L 14.359375 -15.167969 C 17.90625 -15.167969 19.566406 -13.777344 18.039062 -7.808594 Z M 18.039062 -7.808594 "/></g></g></g><g fill="#000000" fill-opacity="1"><g transform="translate(133.469706, 234.585919)"><g><path d="M 3.964844 -7.90625 L 8.765625 -7.90625 L 9.074219 -9.601562 L 2.101562 -9.601562 L 0.402344 0 L 7.515625 0 L 7.820312 -1.710938 L 2.878906 -1.710938 L 3.269531 -3.964844 L 7.765625 -3.964844 L 8.070312 -5.664062 L 3.578125 -5.664062 Z M 3.964844 -7.90625 "/></g></g></g><g fill="#000000" fill-opacity="1"><g transform="translate(144.865033, 234.585919)"><g><path d="M 10.730469 -5.746094 C 10.730469 -8.097656 9.242188 -9.796875 6.429688 -9.796875 C 3.089844 -9.796875 0.875 -7.363281 0.875 -3.867188 C 0.875 -1.515625 2.351562 0.195312 5.164062 0.195312 C 5.496094 0.195312 5.816406 0.152344 6.136719 0.0703125 C 6.527344 -0.0429688 6.777344 -0.0820312 7.152344 -0.0820312 C 7.738281 -0.0820312 8.183594 0.113281 9.085938 0.683594 L 10.199219 -0.710938 C 9.742188 -1.113281 9.324219 -1.378906 8.851562 -1.53125 C 10.007812 -2.324219 10.730469 -3.925781 10.730469 -5.746094 Z M 3.1875 -3.910156 C 3.1875 -5.804688 4.132812 -8.183594 6.347656 -8.183594 C 7.683594 -8.183594 8.417969 -7.222656 8.417969 -5.691406 C 8.417969 -3.800781 7.472656 -1.417969 5.246094 -1.417969 C 3.910156 -1.417969 3.1875 -2.378906 3.1875 -3.910156 Z M 3.1875 -3.910156 "/></g></g></g><g fill="#000000" fill-opacity="1"><g transform="translate(158.61151, 234.585919)"><g><path d="M 10.269531 -9.601562 L 8.097656 -9.601562 L 7.070312 -3.730469 C 7.015625 -3.464844 6.984375 -3.285156 6.929688 -3.089844 C 6.609375 -1.835938 5.929688 -1.417969 4.816406 -1.417969 C 3.828125 -1.417969 3.132812 -1.933594 3.132812 -2.851562 C 3.132812 -3.132812 3.160156 -3.367188 3.230469 -3.757812 L 4.257812 -9.601562 L 2.085938 -9.601562 L 1.167969 -4.382812 C 1.015625 -3.507812 0.960938 -3.074219 0.960938 -2.589844 C 0.960938 -0.960938 2.144531 0.195312 4.648438 0.195312 C 7.429688 0.195312 8.613281 -1.058594 9.058594 -2.921875 C 9.183594 -3.421875 9.242188 -3.714844 9.339844 -4.257812 Z M 10.269531 -9.601562 "/></g></g></g><g fill="#000000" fill-opacity="1"><g transform="translate(171.272839, 234.585919)"><g><path d="M 3.964844 -7.90625 L 8.765625 -7.90625 L 9.074219 -9.601562 L 2.101562 -9.601562 L 0.402344 0 L 7.515625 0 L 7.820312 -1.710938 L 2.878906 -1.710938 L 3.269531 -3.964844 L 7.765625 -3.964844 L 8.070312 -5.664062 L 3.578125 -5.664062 Z M 3.964844 -7.90625 "/></g></g></g><g fill="#000000" fill-opacity="1"><g transform="translate(182.668167, 234.585919)"><g><path d="M 5.21875 -9.796875 C 3.160156 -9.796875 1.265625 -8.601562 1.265625 -6.484375 C 1.265625 -5.066406 2.324219 -4.410156 4.078125 -3.964844 C 5.175781 -3.675781 5.621094 -3.230469 5.621094 -2.6875 C 5.621094 -1.90625 4.898438 -1.417969 4.007812 -1.417969 C 3.132812 -1.417969 2.433594 -1.894531 2.421875 -2.878906 L 0.222656 -2.878906 C 0.0273438 -0.808594 1.515625 0.195312 3.757812 0.195312 C 5.984375 0.195312 7.972656 -0.960938 7.972656 -3.101562 C 7.972656 -4.382812 7.179688 -5.261719 5.425781 -5.691406 C 4.089844 -6.011719 3.617188 -6.386719 3.617188 -6.972656 C 3.617188 -7.765625 4.203125 -8.183594 4.980469 -8.183594 C 5.902344 -8.183594 6.316406 -7.613281 6.261719 -6.722656 L 8.460938 -6.722656 C 8.558594 -8.460938 7.613281 -9.796875 5.21875 -9.796875 Z M 5.21875 -9.796875 "/></g></g></g><g fill="#000000" fill-opacity="1"><g transform="translate(193.96611, 234.585919)"><g><path d="M 9.5625 -7.90625 L 9.882812 -9.601562 L 1.308594 -9.601562 L 1.003906 -7.90625 L 4.203125 -7.90625 L 2.8125 0 L 4.980469 0 L 6.375 -7.90625 Z M 9.5625 -7.90625 "/></g></g></g><g fill="#000000" fill-opacity="1"><g transform="translate(205.472742, 234.585919)"><g><path d="M 9.339844 -7.445312 C 9.339844 -8.78125 8.378906 -9.394531 7.179688 -9.53125 C 6.695312 -9.589844 6.316406 -9.601562 5.746094 -9.601562 L 2.101562 -9.601562 L 0.402344 0 L 2.574219 0 L 3.242188 -3.769531 L 4.121094 -3.769531 C 4.382812 -3.769531 4.621094 -3.769531 4.886719 -3.757812 C 5.523438 -3.714844 5.816406 -3.160156 5.816406 -2.253906 C 5.832031 -0.988281 5.859375 -0.488281 5.929688 0 L 8.292969 0 C 8.097656 -0.429688 8.003906 -1.015625 8.003906 -1.78125 C 8.003906 -3.480469 7.722656 -4.273438 6.875 -4.59375 C 8.417969 -4.980469 9.339844 -5.929688 9.339844 -7.445312 Z M 5.414062 -5.386719 C 5.203125 -5.371094 4.980469 -5.371094 4.675781 -5.371094 L 3.519531 -5.371094 L 3.964844 -7.90625 L 5.191406 -7.90625 C 5.496094 -7.90625 5.734375 -7.890625 5.929688 -7.875 C 6.527344 -7.820312 6.957031 -7.570312 6.957031 -6.902344 C 6.957031 -5.84375 6.222656 -5.457031 5.414062 -5.386719 Z M 5.414062 -5.386719 "/></g></g></g><g fill="#000000" fill-opacity="1"><g transform="translate(217.368904, 234.585919)"><g><path d="M 2.574219 0 L 4.273438 -9.601562 L 2.101562 -9.601562 L 0.402344 0 Z M 2.574219 0 "/></g></g></g><g fill="#000000" fill-opacity="1"><g transform="translate(224.256703, 234.585919)"><g><path d="M 6.347656 -2.714844 L 6.734375 0 L 9.101562 0 L 7.429688 -9.601562 L 4.578125 -9.601562 L -0.515625 0 L 1.824219 0 L 3.171875 -2.714844 Z M 6.082031 -4.425781 L 4.023438 -4.425781 L 5.621094 -7.625 Z M 6.082031 -4.425781 "/></g></g></g><g fill="#000000" fill-opacity="1"><g transform="translate(236.667617, 234.585919)"><g><path d="M 10.867188 -9.601562 L 8.683594 -9.601562 L 7.445312 -2.519531 L 4.898438 -9.601562 L 2.101562 -9.601562 L 0.402344 0 L 2.574219 0 L 3.785156 -6.875 L 6.261719 0 L 9.171875 0 Z M 10.867188 -9.601562 "/></g></g></g><g fill="#000000" fill-opacity="1"><g transform="translate(250.149768, 234.585919)"><g/></g></g><g fill="#000000" fill-opacity="1"><g transform="translate(254.950744, 234.585919)"><g><path d="M 9.339844 -7.445312 C 9.339844 -8.78125 8.378906 -9.394531 7.179688 -9.53125 C 6.695312 -9.589844 6.316406 -9.601562 5.746094 -9.601562 L 2.101562 -9.601562 L 0.402344 0 L 2.574219 0 L 3.242188 -3.769531 L 4.121094 -3.769531 C 4.382812 -3.769531 4.621094 -3.769531 4.886719 -3.757812 C 5.523438 -3.714844 5.816406 -3.160156 5.816406 -2.253906 C 5.832031 -0.988281 5.859375 -0.488281 5.929688 0 L 8.292969 0 C 8.097656 -0.429688 8.003906 -1.015625 8.003906 -1.78125 C 8.003906 -3.480469 7.722656 -4.273438 6.875 -4.59375 C 8.417969 -4.980469 9.339844 -5.929688 9.339844 -7.445312 Z M 5.414062 -5.386719 C 5.203125 -5.371094 4.980469 -5.371094 4.675781 -5.371094 L 3.519531 -5.371094 L 3.964844 -7.90625 L 5.191406 -7.90625 C 5.496094 -7.90625 5.734375 -7.890625 5.929688 -7.875 C 6.527344 -7.820312 6.957031 -7.570312 6.957031 -6.902344 C 6.957031 -5.84375 6.222656 -5.457031 5.414062 -5.386719 Z M 5.414062 -5.386719 "/></g></g></g><g fill="#000000" fill-opacity="1"><g transform="translate(266.846901, 234.585919)"><g><path d="M 6.347656 -2.714844 L 6.734375 0 L 9.101562 0 L 7.429688 -9.601562 L 4.578125 -9.601562 L -0.515625 0 L 1.824219 0 L 3.171875 -2.714844 Z M 6.082031 -4.425781 L 4.023438 -4.425781 L 5.621094 -7.625 Z M 6.082031 -4.425781 "/></g></g></g><g fill="#000000" fill-opacity="1"><g transform="translate(279.25781, 234.585919)"><g><path d="M 10.867188 -9.601562 L 8.683594 -9.601562 L 7.445312 -2.519531 L 4.898438 -9.601562 L 2.101562 -9.601562 L 0.402344 0 L 2.574219 0 L 3.785156 -6.875 L 6.261719 0 L 9.171875 0 Z M 10.867188 -9.601562 "/></g></g></g><g fill="#000000" fill-opacity="1"><g transform="translate(292.73996, 234.585919)"><g><path d="M 6.414062 -9.796875 C 3.382812 -9.796875 0.847656 -7.429688 0.863281 -3.769531 C 0.847656 -1.226562 2.394531 0.195312 4.789062 0.195312 C 7.238281 0.195312 8.960938 -1.042969 9.574219 -3.242188 L 9.617188 -3.382812 L 7.445312 -3.382812 L 7.390625 -3.242188 C 6.957031 -2.101562 6.179688 -1.417969 5.050781 -1.417969 C 3.980469 -1.417969 3.171875 -2.144531 3.171875 -3.9375 C 3.171875 -6.582031 4.507812 -8.183594 6.191406 -8.183594 C 7.363281 -8.183594 7.972656 -7.652344 8.003906 -6.472656 L 8.003906 -6.332031 L 10.171875 -6.332031 L 10.1875 -6.472656 C 10.328125 -8.363281 9.074219 -9.796875 6.414062 -9.796875 Z M 6.414062 -9.796875 "/></g></g></g><g fill="#000000" fill-opacity="1"><g transform="translate(306.02734, 234.585919)"><g><path d="M 10.660156 -9.601562 L 8.476562 -9.601562 L 7.765625 -5.566406 L 3.5625 -5.566406 L 4.273438 -9.601562 L 2.101562 -9.601562 L 0.402344 0 L 2.574219 0 L 3.257812 -3.855469 L 7.460938 -3.855469 L 6.777344 0 L 8.960938 0 Z M 10.660156 -9.601562 "/></g></g></g></svg>