<svg xmlns="http://www.w3.org/2000/svg" xmlns:xlink="http://www.w3.org/1999/xlink" width="500" zoomAndPan="magnify" viewBox="0 0 375 374.999991" height="500" preserveAspectRatio="xMidYMid meet" version="1.0"><defs><g/><clipPath id="a4a130c614"><path d="M 75.46875 117.5625 L 284.71875 117.5625 L 284.71875 306.5625 L 75.46875 306.5625 Z M 75.46875 117.5625 " clip-rule="nonzero"/></clipPath></defs><g clip-path="url(#a4a130c614)"><path fill="#fcfafa" d="M 81.191406 192.261719 C 71.625 224.554688 72.070312 245.355469 100.320312 275.398438 C 112.617188 264.753906 128.933594 277.125 154.734375 269.933594 L 140.148438 283.910156 C 130.460938 291.945312 122.546875 293.871094 116.476562 289.695312 C 110.246094 288.007812 107.636719 292.546875 108.640625 303.351562 C 108.519531 306 110.289062 307.003906 113.824219 306.402344 C 118.085938 303.46875 122.945312 301.785156 128.414062 301.300781 C 134.761719 301.582031 140.429688 299.09375 145.453125 293.75 L 145.332031 293.871094 C 146.214844 294.355469 147.140625 294.835938 148.066406 295.316406 C 149.472656 296.039062 150.917969 296.722656 152.40625 297.367188 C 154.855469 298.449219 157.386719 299.453125 159.960938 300.335938 C 169.566406 303.632812 179.8125 305.4375 190.542969 305.4375 C 242.425781 305.4375 284.542969 263.390625 284.542969 211.5 C 284.542969 159.652344 242.464844 117.5625 190.542969 117.5625 C 146.257812 117.5625 109.121094 148.164062 99.15625 189.371094 C 104.582031 189.734375 110.007812 189.410156 115.109375 187.925781 C 115.550781 186.480469 116.074219 185.035156 116.597656 183.628906 C 114.386719 182.222656 112.417969 180.457031 110.890625 178.285156 C 110.328125 177.523438 109.84375 176.71875 109.445312 175.878906 L 106.710938 170.375 L 112.738281 171.660156 C 114.105469 171.941406 115.433594 172.183594 116.796875 172.34375 C 118.445312 172.542969 120.09375 172.664062 121.742188 172.664062 C 122.988281 170.496094 124.3125 168.367188 125.71875 166.359375 C 124.714844 165.152344 123.75 163.867188 122.867188 162.582031 L 117.964844 155.433594 L 126.203125 158.085938 C 127.808594 158.609375 129.457031 159.050781 131.105469 159.453125 C 135.445312 154.511719 140.429688 150.09375 145.855469 146.359375 L 145.53125 143.066406 L 147.179688 145.476562 C 159.640625 137.320312 174.507812 132.542969 190.503906 132.542969 C 234.148438 132.542969 269.511719 167.886719 269.511719 211.5 C 269.511719 255.117188 234.148438 290.457031 190.503906 290.457031 C 187.691406 290.457031 184.875 290.296875 182.144531 290.015625 C 181.097656 289.894531 180.054688 289.773438 179.007812 289.613281 C 182.585938 282.386719 189.699219 276.761719 200.308594 272.785156 C 209.230469 266.804688 209.550781 260.699219 201.3125 254.433594 L 198.460938 258.085938 C 192.351562 254.59375 182.144531 252.90625 167.878906 253.109375 L 167.917969 252.625 L 167.957031 252.144531 L 167.996094 251.660156 L 168.039062 251.179688 L 168.078125 250.699219 L 168.117188 250.214844 L 168.160156 249.773438 L 168.277344 248.449219 C 168.277344 248.289062 168.277344 248.167969 168.277344 248.007812 L 168.320312 247.566406 L 168.320312 244.59375 C 168.320312 244.472656 168.320312 244.3125 168.320312 244.191406 C 168.320312 244.070312 168.320312 243.910156 168.320312 243.789062 C 168.320312 243.667969 168.320312 243.507812 168.320312 243.390625 C 168.320312 243.269531 168.320312 243.109375 168.320312 242.988281 L 168.320312 242.183594 C 168.320312 242.0625 168.320312 241.941406 168.320312 241.78125 L 168.320312 241.378906 L 168.277344 241.019531 C 168.277344 240.898438 168.277344 240.777344 168.238281 240.65625 C 168.238281 240.539062 168.238281 240.417969 168.199219 240.296875 L 168.160156 239.933594 C 168.160156 239.8125 168.160156 239.695312 168.117188 239.574219 C 168.117188 239.453125 168.078125 239.332031 168.078125 239.210938 L 168.039062 238.851562 C 168.039062 238.730469 167.996094 238.609375 167.996094 238.488281 C 167.996094 238.367188 167.957031 238.246094 167.957031 238.128906 C 167.957031 238.007812 167.917969 237.886719 167.917969 237.765625 C 167.917969 237.644531 167.878906 237.523438 167.878906 237.40625 C 167.878906 237.285156 167.835938 237.164062 167.835938 237.042969 C 167.835938 236.921875 167.796875 236.800781 167.796875 236.722656 C 167.796875 236.601562 167.757812 236.480469 167.757812 236.402344 C 167.757812 236.28125 167.714844 236.160156 167.714844 236.078125 C 167.714844 235.957031 167.675781 235.878906 167.675781 235.757812 C 167.675781 235.636719 167.636719 235.558594 167.636719 235.4375 C 167.597656 235.316406 167.597656 235.234375 167.554688 235.117188 C 167.554688 234.996094 167.515625 234.914062 167.476562 234.792969 C 167.433594 234.671875 167.433594 234.59375 167.394531 234.472656 C 167.355469 234.351562 167.355469 234.273438 167.316406 234.152344 C 167.273438 234.03125 167.273438 233.949219 167.234375 233.832031 C 167.195312 233.710938 167.195312 233.628906 167.152344 233.550781 C 167.113281 233.429688 167.113281 233.347656 167.074219 233.269531 C 167.035156 233.1875 167.035156 233.066406 166.992188 232.988281 C 166.953125 232.90625 166.953125 232.785156 166.914062 232.707031 C 166.871094 232.625 166.871094 232.503906 166.832031 232.425781 C 166.792969 232.34375 166.792969 232.222656 166.75 232.144531 C 166.710938 232.0625 166.710938 231.941406 166.671875 231.863281 C 166.632812 231.78125 166.632812 231.660156 166.589844 231.582031 C 166.550781 231.5 166.511719 231.378906 166.511719 231.300781 C 166.46875 231.21875 166.429688 231.140625 166.429688 231.019531 C 166.390625 230.9375 166.351562 230.859375 166.308594 230.738281 C 166.269531 230.65625 166.230469 230.578125 166.1875 230.457031 C 166.148438 230.375 166.109375 230.296875 166.070312 230.214844 C 166.027344 230.136719 165.988281 230.054688 165.949219 229.976562 C 165.90625 229.894531 165.867188 229.8125 165.828125 229.734375 C 164.824219 227.445312 163.496094 225.636719 161.847656 224.3125 C 165.546875 220.375 170.769531 216.761719 177.523438 213.386719 C 185.039062 206.480469 192.753906 202.261719 200.710938 200.65625 C 197.292969 193.871094 198.179688 187.5625 203.28125 181.621094 L 205.535156 182.945312 C 198.019531 196.441406 204.488281 205.234375 224.945312 209.292969 L 226.992188 210.65625 L 242.304688 220.980469 L 247.691406 220.253906 L 244.316406 217.964844 L 246.847656 215.15625 C 251.308594 220.699219 253.558594 218.96875 253.636719 209.894531 C 256.089844 207.523438 255.808594 205.636719 252.792969 204.3125 C 243.832031 194.714844 238.6875 188.40625 237.402344 185.316406 C 239.050781 184.152344 238.890625 182.867188 236.960938 181.460938 C 225.507812 173.75 221.046875 168.730469 223.617188 166.4375 C 226.390625 163.546875 229.082031 162.183594 231.695312 162.300781 C 227.71875 159.851562 223.941406 160.496094 220.402344 164.3125 C 217.992188 162.746094 216.664062 158.046875 216.503906 150.132812 C 214.496094 150.65625 212.765625 154.472656 211.359375 161.539062 C 211.199219 162.34375 211.039062 163.1875 210.878906 164.070312 C 210.71875 163.789062 210.558594 163.546875 210.394531 163.265625 C 207.019531 157.804688 202.519531 154.953125 196.972656 154.671875 C 190.625 153.867188 186.523438 150.414062 184.636719 144.269531 C 183.066406 147.804688 182.546875 151.257812 183.148438 154.671875 C 183.1875 154.914062 183.230469 155.152344 183.308594 155.394531 C 183.429688 155.917969 183.550781 156.480469 183.75 157 C 178.566406 156.039062 174.949219 152.542969 172.902344 146.480469 C 171.9375 149.492188 172.417969 152.625 174.265625 155.917969 C 174.828125 156.921875 175.554688 157.964844 176.4375 159.007812 C 172.820312 158.40625 169.726562 157.644531 167.074219 156.71875 C 164.339844 155.757812 162.089844 154.550781 160.363281 153.1875 C 160.242188 154.671875 160.320312 156.078125 160.601562 157.441406 C 160.722656 158.085938 160.882812 158.6875 161.125 159.332031 C 161.566406 160.65625 162.210938 161.902344 163.054688 163.105469 C 163.253906 163.425781 163.496094 163.75 163.738281 164.03125 C 162.453125 163.667969 161.246094 163.226562 160.082031 162.746094 C 155.78125 160.855469 152.285156 157.964844 149.589844 154.070312 C 149.792969 156.480469 150.597656 159.050781 151.882812 161.78125 C 152.484375 163.027344 153.167969 164.269531 154.011719 165.554688 C 148.746094 165.316406 143.84375 164.832031 139.261719 164.109375 C 134.199219 163.308594 129.539062 162.261719 125.316406 160.898438 C 126.84375 163.144531 128.453125 165.113281 130.140625 166.800781 C 130.621094 167.28125 131.144531 167.765625 131.667969 168.207031 C 133.4375 169.773438 135.246094 171.019531 137.171875 171.980469 C 136.933594 172.101562 136.730469 172.222656 136.492188 172.34375 C 130.703125 175.273438 123.992188 176.238281 116.476562 175.273438 C 115.070312 175.113281 113.625 174.832031 112.175781 174.550781 C 112.539062 175.273438 112.941406 175.917969 113.382812 176.558594 C 114.867188 178.609375 116.878906 180.375 119.410156 181.820312 C 121.699219 183.105469 124.472656 184.152344 127.648438 184.953125 C 127.449219 185.113281 127.246094 185.273438 127.046875 185.394531 C 116.316406 193.265625 101.367188 194.550781 82.15625 189.332031 C 81.835938 190.335938 81.511719 191.300781 81.230469 192.304688 Z M 145.53125 293.75 C 145.613281 293.671875 145.695312 293.550781 145.8125 293.46875 C 145.734375 293.550781 145.652344 293.671875 145.53125 293.75 Z M 145.8125 293.46875 C 145.894531 293.390625 145.976562 293.269531 146.09375 293.1875 C 146.015625 293.269531 145.894531 293.390625 145.8125 293.46875 Z M 146.09375 293.1875 C 146.175781 293.109375 146.257812 292.988281 146.335938 292.90625 C 146.257812 292.988281 146.175781 293.109375 146.09375 293.1875 Z M 146.375 292.867188 C 146.457031 292.746094 146.539062 292.667969 146.65625 292.546875 C 146.578125 292.667969 146.496094 292.746094 146.375 292.867188 Z M 146.65625 292.546875 C 146.9375 292.226562 147.179688 291.902344 147.460938 291.582031 C 147.179688 291.902344 146.9375 292.226562 146.65625 292.546875 Z M 147.460938 291.582031 C 147.621094 291.382812 147.824219 291.140625 147.984375 290.898438 C 147.824219 291.140625 147.621094 291.339844 147.460938 291.582031 Z M 156.984375 282.949219 C 160.242188 280.777344 163.816406 279.050781 167.675781 277.765625 C 173.703125 276.199219 176.238281 272.464844 175.3125 266.5625 L 186.925781 267.6875 C 183.832031 272.949219 178.648438 278.007812 171.332031 282.867188 C 166.753906 281.902344 162.933594 282.386719 159.800781 284.234375 L 159.839844 284.234375 C 158.875 283.832031 157.949219 283.390625 156.984375 282.949219 Z M 159.800781 284.234375 C 159.71875 284.273438 159.640625 284.3125 159.597656 284.351562 C 159.679688 284.3125 159.757812 284.273438 159.800781 284.234375 Z M 159.558594 284.394531 C 159.476562 284.433594 159.398438 284.472656 159.316406 284.554688 C 159.398438 284.515625 159.476562 284.472656 159.558594 284.394531 Z M 159.316406 284.554688 C 159.238281 284.59375 159.15625 284.632812 159.117188 284.714844 C 159.195312 284.675781 159.277344 284.59375 159.316406 284.554688 Z M 159.074219 284.714844 C 158.996094 284.753906 158.914062 284.835938 158.875 284.875 C 158.957031 284.835938 159.035156 284.753906 159.074219 284.714844 Z M 158.835938 284.875 C 158.753906 284.914062 158.675781 284.996094 158.632812 285.035156 C 158.714844 284.996094 158.792969 284.914062 158.835938 284.875 Z M 158.59375 285.035156 C 158.511719 285.078125 158.472656 285.15625 158.394531 285.195312 C 158.472656 285.15625 158.511719 285.078125 158.59375 285.035156 Z M 158.351562 285.195312 C 158.273438 285.238281 158.191406 285.316406 158.152344 285.359375 C 158.230469 285.316406 158.273438 285.238281 158.351562 285.195312 Z M 158.152344 285.359375 C 158.070312 285.398438 158.03125 285.476562 157.949219 285.519531 C 158.03125 285.476562 158.070312 285.398438 158.152344 285.359375 Z M 157.949219 285.558594 C 157.871094 285.597656 157.832031 285.679688 157.75 285.757812 C 157.832031 285.679688 157.871094 285.636719 157.949219 285.558594 Z M 157.710938 285.757812 C 157.628906 285.839844 157.589844 285.878906 157.507812 285.960938 C 157.589844 285.878906 157.628906 285.839844 157.710938 285.757812 Z M 157.507812 285.960938 C 157.429688 286.039062 157.386719 286.082031 157.308594 286.160156 C 157.386719 286.082031 157.429688 286.039062 157.507812 285.960938 Z M 157.308594 286.160156 C 157.226562 286.242188 157.1875 286.28125 157.105469 286.363281 C 157.1875 286.28125 157.226562 286.242188 157.308594 286.160156 Z M 157.105469 286.363281 C 157.027344 286.441406 156.984375 286.480469 156.90625 286.5625 C 156.984375 286.480469 157.027344 286.441406 157.105469 286.363281 Z M 156.90625 286.5625 C 156.824219 286.644531 156.785156 286.683594 156.703125 286.761719 C 156.785156 286.683594 156.824219 286.601562 156.90625 286.5625 Z M 156.703125 286.761719 C 156.625 286.84375 156.585938 286.921875 156.503906 286.964844 C 156.542969 286.882812 156.625 286.804688 156.703125 286.761719 Z M 156.503906 287.003906 C 156.382812 287.164062 156.261719 287.285156 156.140625 287.445312 C 156.261719 287.285156 156.382812 287.125 156.503906 287.003906 Z M 156.101562 287.484375 C 156.0625 287.566406 155.980469 287.648438 155.941406 287.726562 C 155.980469 287.648438 156.0625 287.566406 156.101562 287.484375 Z M 155.902344 287.726562 C 155.859375 287.808594 155.78125 287.886719 155.742188 287.96875 C 155.78125 287.886719 155.859375 287.808594 155.902344 287.726562 Z M 155.699219 287.96875 C 155.660156 288.046875 155.578125 288.128906 155.539062 288.207031 C 155.578125 288.128906 155.660156 288.046875 155.699219 287.96875 Z M 155.5 288.207031 C 155.460938 288.289062 155.378906 288.371094 155.339844 288.449219 C 155.378906 288.371094 155.460938 288.289062 155.5 288.207031 Z M 155.339844 288.449219 C 155.296875 288.53125 155.21875 288.609375 155.179688 288.691406 C 155.21875 288.609375 155.296875 288.53125 155.339844 288.449219 Z M 155.136719 288.730469 C 155.097656 288.8125 155.015625 288.890625 154.976562 288.972656 C 155.015625 288.890625 155.097656 288.8125 155.136719 288.730469 Z M 154.976562 288.972656 C 154.9375 289.050781 154.855469 289.132812 154.816406 289.253906 C 154.855469 289.171875 154.9375 289.09375 154.976562 288.972656 Z M 154.816406 289.253906 C 154.777344 289.332031 154.695312 289.453125 154.65625 289.535156 C 154.695312 289.453125 154.777344 289.332031 154.816406 289.253906 Z M 154.816406 289.253906 " fill-opacity="1" fill-rule="evenodd"/></g><g fill="#fcfafa" fill-opacity="1"><g transform="translate(144.965631, 79.975699)"><g><path d="M 26.28125 -60.078125 C 26.28125 -59.835938 25.6875 -59.71875 24.5 -59.71875 C 23.3125 -59.71875 22.132812 -59.300781 20.96875 -58.46875 C 19.800781 -57.644531 19.21875 -55.984375 19.21875 -53.484375 L 19.21875 0.4375 C 19.21875 6.914062 17.375 12.945312 13.6875 18.53125 C 11.15625 22.394531 7.988281 25.113281 4.1875 26.6875 C 2.238281 27.5 0.226562 27.90625 -1.84375 27.90625 C -3.925781 27.90625 -5.957031 27.4375 -7.9375 26.5 C -9.914062 25.570312 -10.90625 24.523438 -10.90625 23.359375 C -10.90625 22.203125 -10.4375 21.238281 -9.5 20.46875 C -8.570312 19.695312 -7.613281 19.3125 -6.625 19.3125 C -5.632812 19.3125 -4.816406 19.410156 -4.171875 19.609375 C -3.535156 19.816406 -2.976562 20.070312 -2.5 20.375 C -2.019531 20.6875 -1.597656 21.019531 -1.234375 21.375 C -0.878906 21.738281 -0.375 22.175781 0.28125 22.6875 C 0.9375 23.195312 1.832031 23.453125 2.96875 23.453125 C 5.207031 23.453125 6.914062 22.515625 8.09375 20.640625 C 9.269531 18.765625 10 16.554688 10.28125 14.015625 C 10.570312 11.472656 10.71875 8.253906 10.71875 4.359375 L 10.71875 -54.5 C 10.71875 -57.425781 9.078125 -59.109375 5.796875 -59.546875 C 4.753906 -59.660156 3.578125 -59.71875 2.265625 -59.71875 C 2.035156 -59.71875 1.921875 -59.835938 1.921875 -60.078125 L 1.921875 -61.125 C 1.921875 -61.351562 2.035156 -61.46875 2.265625 -61.46875 L 25.9375 -61.46875 C 26.164062 -61.46875 26.28125 -61.351562 26.28125 -61.125 Z M 26.28125 -60.078125 "/></g></g></g><g fill="#fcfafa" fill-opacity="1"><g transform="translate(181.427556, 79.975699)"><g><path d="M 0.78125 0 C 0.550781 0 0.4375 -0.113281 0.4375 -0.34375 L 0.4375 -1.390625 C 0.4375 -1.628906 0.640625 -1.75 1.046875 -1.75 C 2.410156 -1.75 3.921875 -1.894531 5.578125 -2.1875 C 10.898438 -3.082031 13.5625 -4.910156 13.5625 -7.671875 L 13.5625 -53.671875 C 13.269531 -57.390625 11.566406 -59.40625 8.453125 -59.71875 C 7.523438 -59.84375 6.492188 -59.90625 5.359375 -59.90625 L 2.875 -59.90625 C 2.644531 -59.90625 2.53125 -60.019531 2.53125 -60.25 L 2.53125 -61.34375 C 2.53125 -61.570312 2.644531 -61.6875 2.875 -61.6875 L 4.796875 -61.734375 L 12.296875 -61.765625 L 27.8125 -62.25 C 44.4375 -62.25 52.75 -57.335938 52.75 -47.515625 C 52.75 -43.359375 50.597656 -39.898438 46.296875 -37.140625 C 45.628906 -36.703125 45.054688 -36.378906 44.578125 -36.171875 C 44.097656 -35.972656 43.828125 -35.859375 43.765625 -35.828125 C 47.597656 -33.679688 50.613281 -31.269531 52.8125 -28.59375 C 55.007812 -25.925781 56.109375 -22.726562 56.109375 -19 C 56.109375 -11.070312 52.359375 -5.550781 44.859375 -2.4375 C 40.992188 -0.8125 36.796875 0 32.265625 0 Z M 22.84375 -34 C 22.46875 -34 22.28125 -33.84375 22.28125 -33.53125 L 22.28125 -9.640625 C 22.28125 -7.578125 23.242188 -5.921875 25.171875 -4.671875 C 27.109375 -3.421875 29.195312 -2.796875 31.4375 -2.796875 C 35.738281 -2.796875 39.398438 -4.328125 42.421875 -7.390625 C 45.441406 -10.453125 46.953125 -14.226562 46.953125 -18.71875 C 46.953125 -23.207031 45.332031 -26.875 42.09375 -29.71875 C 38.851562 -32.570312 34.75 -34 29.78125 -34 Z M 22.1875 -37.53125 C 22.1875 -36.976562 22.519531 -36.703125 23.1875 -36.703125 L 33.921875 -36.703125 C 36.703125 -36.703125 39.046875 -37.734375 40.953125 -39.796875 C 42.859375 -41.859375 43.8125 -44.171875 43.8125 -46.734375 C 43.8125 -51.296875 42.515625 -54.597656 39.921875 -56.640625 C 37.335938 -58.691406 33.894531 -59.71875 29.59375 -59.71875 C 28.289062 -59.632812 27.382812 -59.59375 26.875 -59.59375 C 26.363281 -59.59375 25.832031 -59.597656 25.28125 -59.609375 C 24.726562 -59.628906 24.175781 -59.59375 23.625 -59.5 C 23.070312 -59.414062 22.691406 -59.226562 22.484375 -58.9375 C 22.285156 -58.644531 22.1875 -58.164062 22.1875 -57.5 Z M 22.1875 -37.53125 "/></g></g></g><g fill="#fcfafa" fill-opacity="1"><g transform="translate(50.588091, 367.561198)"><g><path d="M 2.5 0 L 2.5 -21.515625 L 14.546875 -21.515625 L 14.546875 -19.53125 L 4.859375 -19.53125 L 4.859375 -12.015625 L 12.421875 -12.015625 L 12.421875 -10.09375 L 4.859375 -10.09375 L 4.859375 -1.953125 L 14.640625 -1.953125 L 14.640625 0 Z M 2.5 0 "/></g></g></g><g fill="#fcfafa" fill-opacity="1"><g transform="translate(68.97344, 367.561198)"><g><path d="M 15.734375 -14.765625 L 15.734375 6.3125 L 13.59375 6.3125 L 13.59375 -2.203125 C 12.988281 -1.347656 12.238281 -0.679688 11.34375 -0.203125 C 10.445312 0.265625 9.460938 0.5 8.390625 0.5 C 6.984375 0.5 5.726562 0.164062 4.625 -0.5 C 3.519531 -1.175781 2.65625 -2.109375 2.03125 -3.296875 C 1.414062 -4.484375 1.109375 -5.832031 1.109375 -7.34375 C 1.109375 -8.882812 1.421875 -10.253906 2.046875 -11.453125 C 2.679688 -12.648438 3.554688 -13.582031 4.671875 -14.25 C 5.785156 -14.925781 7.046875 -15.265625 8.453125 -15.265625 C 9.503906 -15.265625 10.472656 -15.023438 11.359375 -14.546875 C 12.242188 -14.078125 12.988281 -13.425781 13.59375 -12.59375 L 13.59375 -14.765625 Z M 8.390625 -1.453125 C 9.398438 -1.453125 10.296875 -1.703125 11.078125 -2.203125 C 11.867188 -2.710938 12.484375 -3.414062 12.921875 -4.3125 C 13.367188 -5.21875 13.59375 -6.238281 13.59375 -7.375 C 13.59375 -8.507812 13.367188 -9.53125 12.921875 -10.4375 C 12.484375 -11.34375 11.867188 -12.046875 11.078125 -12.546875 C 10.296875 -13.054688 9.398438 -13.3125 8.390625 -13.3125 C 7.398438 -13.3125 6.515625 -13.054688 5.734375 -12.546875 C 4.960938 -12.046875 4.351562 -11.34375 3.90625 -10.4375 C 3.46875 -9.53125 3.25 -8.5 3.25 -7.34375 C 3.25 -6.207031 3.46875 -5.191406 3.90625 -4.296875 C 4.351562 -3.410156 4.960938 -2.710938 5.734375 -2.203125 C 6.515625 -1.703125 7.398438 -1.453125 8.390625 -1.453125 Z M 8.390625 -1.453125 "/></g></g></g><g fill="#fcfafa" fill-opacity="1"><g transform="translate(89.187711, 367.561198)"><g><path d="M 14.953125 -14.765625 L 14.953125 0 L 12.8125 0 L 12.8125 -2.453125 C 12.300781 -1.515625 11.628906 -0.785156 10.796875 -0.265625 C 9.972656 0.242188 9.015625 0.5 7.921875 0.5 C 6.890625 0.5 5.9375 0.289062 5.0625 -0.125 C 4.1875 -0.539062 3.488281 -1.160156 2.96875 -1.984375 C 2.457031 -2.804688 2.203125 -3.773438 2.203125 -4.890625 L 2.203125 -14.765625 L 4.359375 -14.765625 L 4.359375 -5.84375 C 4.359375 -2.914062 5.660156 -1.453125 8.265625 -1.453125 C 9.773438 -1.453125 10.910156 -1.988281 11.671875 -3.0625 C 12.429688 -4.132812 12.8125 -5.570312 12.8125 -7.375 L 12.8125 -14.765625 Z M 14.953125 -14.765625 "/></g></g></g><g fill="#fcfafa" fill-opacity="1"><g transform="translate(108.645182, 367.561198)"><g><path d="M 8.359375 -15.265625 C 9.679688 -15.265625 10.878906 -14.9375 11.953125 -14.28125 C 13.023438 -13.632812 13.863281 -12.75 14.46875 -11.625 C 15.082031 -10.5 15.390625 -9.242188 15.390625 -7.859375 C 15.390625 -7.453125 15.378906 -7.144531 15.359375 -6.9375 L 3.21875 -6.9375 C 3.300781 -5.425781 3.796875 -4.132812 4.703125 -3.0625 C 5.609375 -1.988281 6.835938 -1.453125 8.390625 -1.453125 C 9.648438 -1.453125 10.695312 -1.6875 11.53125 -2.15625 C 12.363281 -2.632812 13.03125 -3.289062 13.53125 -4.125 L 15.234375 -3 C 14.546875 -1.90625 13.628906 -1.046875 12.484375 -0.421875 C 11.347656 0.191406 10.003906 0.5 8.453125 0.5 C 7.023438 0.5 5.753906 0.164062 4.640625 -0.5 C 3.523438 -1.175781 2.648438 -2.113281 2.015625 -3.3125 C 1.390625 -4.507812 1.078125 -5.863281 1.078125 -7.375 C 1.078125 -8.894531 1.382812 -10.253906 2 -11.453125 C 2.625 -12.648438 3.488281 -13.582031 4.59375 -14.25 C 5.695312 -14.925781 6.953125 -15.265625 8.359375 -15.265625 Z M 13.25 -8.703125 C 13.039062 -10.242188 12.523438 -11.394531 11.703125 -12.15625 C 10.878906 -12.925781 9.765625 -13.3125 8.359375 -13.3125 C 6.992188 -13.3125 5.875 -12.875 5 -12 C 4.125 -11.125 3.570312 -10.023438 3.34375 -8.703125 Z M 13.25 -8.703125 "/></g></g></g><g fill="#fcfafa" fill-opacity="1"><g transform="translate(127.724269, 367.561198)"><g><path d="M 7.1875 0.5 C 5.757812 0.5 4.503906 0.195312 3.421875 -0.40625 C 2.335938 -1.019531 1.515625 -1.882812 0.953125 -3 L 2.875 -3.9375 C 3.644531 -2.28125 5.164062 -1.453125 7.4375 -1.453125 C 8.53125 -1.453125 9.4375 -1.648438 10.15625 -2.046875 C 10.875 -2.453125 11.234375 -3.070312 11.234375 -3.90625 C 11.234375 -4.769531 10.941406 -5.410156 10.359375 -5.828125 C 9.785156 -6.253906 8.769531 -6.53125 7.3125 -6.65625 C 5.300781 -6.820312 3.859375 -7.269531 2.984375 -8 C 2.109375 -8.738281 1.671875 -9.722656 1.671875 -10.953125 C 1.671875 -12.316406 2.164062 -13.375 3.15625 -14.125 C 4.144531 -14.882812 5.5 -15.265625 7.21875 -15.265625 C 10.144531 -15.265625 12.132812 -14.109375 13.1875 -11.796875 L 11.265625 -10.859375 C 10.898438 -11.691406 10.375 -12.304688 9.6875 -12.703125 C 9.007812 -13.109375 8.132812 -13.3125 7.0625 -13.3125 C 5.96875 -13.3125 5.128906 -13.109375 4.546875 -12.703125 C 3.972656 -12.304688 3.6875 -11.742188 3.6875 -11.015625 C 3.6875 -10.316406 3.992188 -9.75 4.609375 -9.3125 C 5.234375 -8.882812 6.304688 -8.609375 7.828125 -8.484375 C 9.691406 -8.316406 11.082031 -7.859375 12 -7.109375 C 12.914062 -6.367188 13.375 -5.390625 13.375 -4.171875 C 13.375 -3.179688 13.085938 -2.332031 12.515625 -1.625 C 11.953125 -0.914062 11.195312 -0.382812 10.25 -0.03125 C 9.300781 0.320312 8.28125 0.5 7.1875 0.5 Z M 7.1875 0.5 "/></g></g></g><g fill="#fcfafa" fill-opacity="1"><g transform="translate(144.879808, 367.561198)"><g><path d="M 2.78125 0 L 2.78125 -12.8125 L 0.25 -12.8125 L 0.25 -14.765625 L 2.78125 -14.765625 L 2.78125 -19.65625 L 4.921875 -19.65625 L 4.921875 -14.765625 L 8.328125 -14.765625 L 8.328125 -12.8125 L 4.921875 -12.8125 L 4.921875 0 Z M 2.78125 0 "/></g></g></g><g fill="#fcfafa" fill-opacity="1"><g transform="translate(156.075558, 367.561198)"><g><path d="M 9.25 -15.265625 C 9.75 -15.265625 10.226562 -15.191406 10.6875 -15.046875 L 10.6875 -13.09375 C 10.25 -13.300781 9.769531 -13.40625 9.25 -13.40625 C 8.34375 -13.40625 7.5 -13.148438 6.71875 -12.640625 C 5.9375 -12.140625 5.304688 -11.410156 4.828125 -10.453125 C 4.359375 -9.492188 4.125 -8.363281 4.125 -7.0625 L 4.125 0 L 1.984375 0 L 1.984375 -14.765625 L 4.125 -14.765625 L 4.125 -11.796875 C 4.695312 -12.890625 5.421875 -13.738281 6.296875 -14.34375 C 7.171875 -14.957031 8.15625 -15.265625 9.25 -15.265625 Z M 9.25 -15.265625 "/></g></g></g><g fill="#fcfafa" fill-opacity="1"><g transform="translate(169.289442, 367.561198)"><g><path d="M 3.15625 0 L 3.15625 -14.765625 L 5.296875 -14.765625 L 5.296875 0 Z M 4.234375 -17.640625 C 3.753906 -17.640625 3.347656 -17.804688 3.015625 -18.140625 C 2.691406 -18.472656 2.53125 -18.882812 2.53125 -19.375 C 2.53125 -19.832031 2.691406 -20.222656 3.015625 -20.546875 C 3.347656 -20.878906 3.753906 -21.046875 4.234375 -21.046875 C 4.691406 -21.046875 5.085938 -20.878906 5.421875 -20.546875 C 5.765625 -20.222656 5.9375 -19.820312 5.9375 -19.34375 C 5.9375 -18.875 5.765625 -18.472656 5.421875 -18.140625 C 5.085938 -17.804688 4.691406 -17.640625 4.234375 -17.640625 Z M 4.234375 -17.640625 "/></g></g></g><g fill="#fcfafa" fill-opacity="1"><g transform="translate(180.26446, 367.561198)"><g><path d="M 15.703125 -14.765625 L 15.703125 0 L 13.5625 0 L 13.5625 -2.171875 C 12.957031 -1.335938 12.210938 -0.679688 11.328125 -0.203125 C 10.441406 0.265625 9.472656 0.5 8.421875 0.5 C 7.015625 0.5 5.753906 0.164062 4.640625 -0.5 C 3.523438 -1.175781 2.648438 -2.113281 2.015625 -3.3125 C 1.390625 -4.507812 1.078125 -5.875 1.078125 -7.40625 C 1.078125 -8.925781 1.382812 -10.28125 2 -11.46875 C 2.625 -12.65625 3.488281 -13.582031 4.59375 -14.25 C 5.695312 -14.925781 6.953125 -15.265625 8.359375 -15.265625 C 9.429688 -15.265625 10.414062 -15.023438 11.3125 -14.546875 C 12.207031 -14.078125 12.957031 -13.414062 13.5625 -12.5625 L 13.5625 -14.765625 Z M 8.359375 -1.453125 C 9.367188 -1.453125 10.265625 -1.703125 11.046875 -2.203125 C 11.835938 -2.710938 12.453125 -3.414062 12.890625 -4.3125 C 13.335938 -5.21875 13.5625 -6.238281 13.5625 -7.375 C 13.5625 -8.507812 13.335938 -9.53125 12.890625 -10.4375 C 12.453125 -11.34375 11.835938 -12.046875 11.046875 -12.546875 C 10.265625 -13.054688 9.367188 -13.3125 8.359375 -13.3125 C 7.367188 -13.3125 6.484375 -13.054688 5.703125 -12.546875 C 4.929688 -12.046875 4.320312 -11.347656 3.875 -10.453125 C 3.4375 -9.554688 3.21875 -8.539062 3.21875 -7.40625 C 3.21875 -6.25 3.4375 -5.21875 3.875 -4.3125 C 4.320312 -3.414062 4.929688 -2.710938 5.703125 -2.203125 C 6.484375 -1.703125 7.367188 -1.453125 8.359375 -1.453125 Z M 8.359375 -1.453125 "/></g></g></g><g fill="#fcfafa" fill-opacity="1"><g transform="translate(200.478736, 367.561198)"><g><path d="M 9.015625 -15.265625 C 10.046875 -15.265625 11 -15.050781 11.875 -14.625 C 12.75 -14.207031 13.441406 -13.585938 13.953125 -12.765625 C 14.472656 -11.953125 14.734375 -10.988281 14.734375 -9.875 L 14.734375 0 L 12.59375 0 L 12.59375 -8.921875 C 12.59375 -11.847656 11.285156 -13.3125 8.671875 -13.3125 C 7.160156 -13.3125 6.023438 -12.773438 5.265625 -11.703125 C 4.503906 -10.628906 4.125 -9.1875 4.125 -7.375 L 4.125 0 L 1.984375 0 L 1.984375 -14.765625 L 4.125 -14.765625 L 4.125 -12.296875 C 4.632812 -13.242188 5.300781 -13.972656 6.125 -14.484375 C 6.957031 -15.003906 7.921875 -15.265625 9.015625 -15.265625 Z M 9.015625 -15.265625 "/></g></g></g><g fill="#fcfafa" fill-opacity="1"><g transform="translate(219.936208, 367.561198)"><g/></g></g><g fill="#fcfafa" fill-opacity="1"><g transform="translate(229.492217, 367.561198)"><g><path d="M 14.578125 0 L 9.109375 -9.5 L 4.859375 -9.5 L 4.859375 0 L 2.5 0 L 2.5 -21.515625 L 9.6875 -21.515625 C 10.988281 -21.515625 12.132812 -21.257812 13.125 -20.75 C 14.113281 -20.25 14.867188 -19.539062 15.390625 -18.625 C 15.921875 -17.707031 16.1875 -16.660156 16.1875 -15.484375 C 16.1875 -14.054688 15.753906 -12.832031 14.890625 -11.8125 C 14.023438 -10.789062 12.878906 -10.101562 11.453125 -9.75 L 17.0625 0 Z M 4.859375 -11.453125 L 9.375 -11.453125 C 10.757812 -11.453125 11.820312 -11.816406 12.5625 -12.546875 C 13.3125 -13.285156 13.6875 -14.265625 13.6875 -15.484375 C 13.6875 -16.703125 13.3125 -17.6875 12.5625 -18.4375 C 11.820312 -19.1875 10.757812 -19.5625 9.375 -19.5625 L 4.859375 -19.5625 Z M 4.859375 -11.453125 "/></g></g></g><g fill="#fcfafa" fill-opacity="1"><g transform="translate(250.305616, 367.561198)"><g><path d="M 15.703125 -14.765625 L 15.703125 0 L 13.5625 0 L 13.5625 -2.171875 C 12.957031 -1.335938 12.210938 -0.679688 11.328125 -0.203125 C 10.441406 0.265625 9.472656 0.5 8.421875 0.5 C 7.015625 0.5 5.753906 0.164062 4.640625 -0.5 C 3.523438 -1.175781 2.648438 -2.113281 2.015625 -3.3125 C 1.390625 -4.507812 1.078125 -5.875 1.078125 -7.40625 C 1.078125 -8.925781 1.382812 -10.28125 2 -11.46875 C 2.625 -12.65625 3.488281 -13.582031 4.59375 -14.25 C 5.695312 -14.925781 6.953125 -15.265625 8.359375 -15.265625 C 9.429688 -15.265625 10.414062 -15.023438 11.3125 -14.546875 C 12.207031 -14.078125 12.957031 -13.414062 13.5625 -12.5625 L 13.5625 -14.765625 Z M 8.359375 -1.453125 C 9.367188 -1.453125 10.265625 -1.703125 11.046875 -2.203125 C 11.835938 -2.710938 12.453125 -3.414062 12.890625 -4.3125 C 13.335938 -5.21875 13.5625 -6.238281 13.5625 -7.375 C 13.5625 -8.507812 13.335938 -9.53125 12.890625 -10.4375 C 12.453125 -11.34375 11.835938 -12.046875 11.046875 -12.546875 C 10.265625 -13.054688 9.367188 -13.3125 8.359375 -13.3125 C 7.367188 -13.3125 6.484375 -13.054688 5.703125 -12.546875 C 4.929688 -12.046875 4.320312 -11.347656 3.875 -10.453125 C 3.4375 -9.554688 3.21875 -8.539062 3.21875 -7.40625 C 3.21875 -6.25 3.4375 -5.21875 3.875 -4.3125 C 4.320312 -3.414062 4.929688 -2.710938 5.703125 -2.203125 C 6.484375 -1.703125 7.367188 -1.453125 8.359375 -1.453125 Z M 8.359375 -1.453125 "/></g></g></g><g fill="#fcfafa" fill-opacity="1"><g transform="translate(270.519881, 367.561198)"><g><path d="M 9.015625 -15.265625 C 10.046875 -15.265625 11 -15.050781 11.875 -14.625 C 12.75 -14.207031 13.441406 -13.585938 13.953125 -12.765625 C 14.472656 -11.953125 14.734375 -10.988281 14.734375 -9.875 L 14.734375 0 L 12.59375 0 L 12.59375 -8.921875 C 12.59375 -11.847656 11.285156 -13.3125 8.671875 -13.3125 C 7.160156 -13.3125 6.023438 -12.773438 5.265625 -11.703125 C 4.503906 -10.628906 4.125 -9.1875 4.125 -7.375 L 4.125 0 L 1.984375 0 L 1.984375 -14.765625 L 4.125 -14.765625 L 4.125 -12.296875 C 4.632812 -13.242188 5.300781 -13.972656 6.125 -14.484375 C 6.957031 -15.003906 7.921875 -15.265625 9.015625 -15.265625 Z M 9.015625 -15.265625 "/></g></g></g><g fill="#fcfafa" fill-opacity="1"><g transform="translate(289.977344, 367.561198)"><g><path d="M 8.390625 0.5 C 6.960938 0.5 5.691406 0.164062 4.578125 -0.5 C 3.460938 -1.175781 2.585938 -2.113281 1.953125 -3.3125 C 1.328125 -4.507812 1.015625 -5.863281 1.015625 -7.375 C 1.015625 -8.894531 1.320312 -10.253906 1.9375 -11.453125 C 2.5625 -12.648438 3.429688 -13.582031 4.546875 -14.25 C 5.660156 -14.925781 6.921875 -15.265625 8.328125 -15.265625 C 9.523438 -15.265625 10.570312 -15.003906 11.46875 -14.484375 C 12.363281 -13.972656 13.175781 -13.242188 13.90625 -12.296875 L 12.328125 -11.078125 C 11.296875 -12.566406 9.960938 -13.3125 8.328125 -13.3125 C 7.335938 -13.3125 6.445312 -13.054688 5.65625 -12.546875 C 4.875 -12.046875 4.257812 -11.34375 3.8125 -10.4375 C 3.375 -9.53125 3.15625 -8.507812 3.15625 -7.375 C 3.15625 -6.238281 3.375 -5.21875 3.8125 -4.3125 C 4.257812 -3.414062 4.875 -2.710938 5.65625 -2.203125 C 6.445312 -1.703125 7.335938 -1.453125 8.328125 -1.453125 C 9.335938 -1.453125 10.164062 -1.625 10.8125 -1.96875 C 11.46875 -2.320312 12.0625 -2.832031 12.59375 -3.5 L 14.265625 -2.328125 C 13.566406 -1.472656 12.707031 -0.785156 11.6875 -0.265625 C 10.664062 0.242188 9.566406 0.5 8.390625 0.5 Z M 8.390625 0.5 "/></g></g></g><g fill="#fcfafa" fill-opacity="1"><g transform="translate(307.542821, 367.561198)"><g><path d="M 9.015625 -15.265625 C 10.046875 -15.265625 11 -15.050781 11.875 -14.625 C 12.75 -14.207031 13.441406 -13.585938 13.953125 -12.765625 C 14.472656 -11.953125 14.734375 -10.988281 14.734375 -9.875 L 14.734375 0 L 12.59375 0 L 12.59375 -8.921875 C 12.59375 -11.847656 11.285156 -13.3125 8.671875 -13.3125 C 7.160156 -13.3125 6.023438 -12.773438 5.265625 -11.703125 C 4.503906 -10.628906 4.125 -9.1875 4.125 -7.375 L 4.125 0 L 1.984375 0 L 1.984375 -22.90625 L 4.125 -22.90625 L 4.125 -12.296875 C 4.632812 -13.242188 5.300781 -13.972656 6.125 -14.484375 C 6.957031 -15.003906 7.921875 -15.265625 9.015625 -15.265625 Z M 9.015625 -15.265625 "/></g></g></g></svg>